<?xml version="1.0" standalone="no"?><!DOCTYPE svg PUBLIC "-//W3C//DTD SVG 1.1//EN" "http://www.w3.org/Graphics/SVG/1.1/DTD/svg11.dtd"><svg t="1746004870998" class="icon" viewBox="0 0 1024 1024" version="1.1" xmlns="http://www.w3.org/2000/svg" p-id="25251" xmlns:xlink="http://www.w3.org/1999/xlink" width="200" height="200"><path d="M64 64h213.333333v85.333333h-128v128h-85.333333v-213.333333z m682.666667 0h213.333333v213.333333h-85.333333v-128h-128v-85.333333zM512 164.053333l301.269333 173.952v347.946667L512 859.946667l-301.354667-173.994667 0.085334-347.946667 301.226666-173.952z m-215.978667 272.469334v200.192L469.333333 736.768v-200.149333L296.021333 436.48zM554.666667 736.768l173.312-100.053333v-200.149334L554.666667 536.618667v200.106666z m-42.666667-274.048L685.269333 362.666667 512 262.613333 338.688 362.624 512 462.72zM149.333333 746.666667v128h128v85.333333h-213.333333v-213.333333h85.333333z m810.666667 0v213.333333h-213.333333v-85.333333h128v-128h85.333333z" p-id="25252"></path></svg>